<svg xmlns="http://www.w3.org/2000/svg" version="1.1" xmlns:xlink="http://www.w3.org/1999/xlink" xmlns:svgjs="http://svgjs.dev/svgjs" width="128" height="128" viewBox="0 0 128 128"><g transform="matrix(0.8046875,0,0,0.8046875,12.760752631578946,17.103744874157044)"><svg viewBox="0 0 95 87" data-background-color="#ffffff" preserveAspectRatio="xMidYMid meet" height="117" width="128" xmlns="http://www.w3.org/2000/svg" xmlns:xlink="http://www.w3.org/1999/xlink"><g id="tight-bounds" transform="matrix(1,0,0,1,-0.24049999999999727,-0.16445132508611948)"><svg viewBox="0 0 95.481 87.32890265017222" height="87.32890265017222" width="95.481"><g><svg viewBox="0 0 95.481 87.32890265017222" height="87.32890265017222" width="95.481"><g><svg viewBox="0 0 95.481 87.32890265017222" height="87.32890265017222" width="95.481"><g id="textblocktransform"><svg viewBox="0 0 95.481 87.32890265017222" height="87.32890265017222" width="95.481" id="textblock"><g><svg viewBox="0 0 95.481 87.32890265017222" height="87.32890265017222" width="95.481"><g><svg viewBox="0 0 95.481 87.32890265017222" height="87.32890265017222" width="95.481"><g><svg xmlns="http://www.w3.org/2000/svg" xmlns:xlink="http://www.w3.org/1999/xlink" version="1.1" x="0" y="0" viewBox="14.491999999999999 17.524 71.01424999999998 64.9511057176296" enable-background="new 0 0 100 100" xml:space="preserve" height="87.32890265017222" width="95.481" class="icon-icon-0" data-fill-palette-color="accent" id="icon-0"><g fill="#37003c" data-fill-palette-color="accent"><path fill="#37003c" d="M50 17.524C40.941 17.524 31.799 21.006 24.893 28.027 11.025 42.069 11.025 64.874 24.893 78.917A36 36 0 0 0 28.388 82.006C29.394 82.792 31.016 82.568 31.771 81.501 35.909 75.631 42.535 71.867 50 71.867S64.091 75.631 68.229 81.501C68.984 82.54 70.605 82.792 71.583 82.006A36 36 0 0 0 75.106 78.917C88.973 64.874 88.973 42.069 75.106 28.027 68.201 21.007 59.087 17.524 50 17.524M50 22.327C57.885 22.327 65.741 25.332 71.752 31.427 83.803 43.615 83.803 63.332 71.752 75.52 71.333 75.969 70.802 76.334 70.326 76.755 65.321 70.914 58.136 67.067 50 67.067 41.892 67.067 34.679 70.886 29.646 76.755 29.17 76.334 28.667 75.969 28.248 75.52 16.198 63.332 16.198 43.615 28.248 31.427 34.259 25.332 42.116 22.327 50 22.327M67.586 33.813C67.167 33.813 66.775 33.925 66.412 34.122L52.069 42.576C48.574 41.902 44.855 42.885 42.199 45.581 37.893 49.935 37.893 57.04 42.199 61.393 46.477 65.747 53.522 65.747 57.801 61.393 60.177 59.006 61.155 55.748 60.905 52.603L69.656 37.409A2.55 2.55 0 0 0 69.628 34.993C69.208 34.263 68.396 33.785 67.586 33.813M61.071 42.829L56.486 50.749A2.58 2.58 0 0 0 56.207 52.378C56.542 54.372 55.955 56.479 54.445 57.995 51.957 60.522 48.014 60.522 45.526 57.995 43.038 55.495 43.038 51.479 45.526 48.951 47.232 47.21 49.692 46.704 51.845 47.379A2.56 2.56 0 0 0 53.718 47.154z" data-fill-palette-color="accent"></path></g></svg></g></svg></g></svg></g></svg></g></svg></g></svg></g><defs></defs></svg><rect width="95.481" height="87.32890265017222" fill="none" stroke="none" visibility="hidden"></rect></g></svg></g></svg>