<svg width="24" height="24" viewBox="0 0 24 24" fill="none" xmlns="http://www.w3.org/2000/svg">
<mask id="path-1-inside-1_82_23902" fill="white">
<path d="M3 7C3 4.79086 4.79086 3 7 3H9.66667C10.403 3 11 3.59695 11 4.33333V11.6667C11 12.403 10.403 13 9.66667 13H4.33333C3.59695 13 3 12.403 3 11.6667V7Z"/>
</mask>
<path d="M3 7C3 4.79086 4.79086 3 7 3H9.66667C10.403 3 11 3.59695 11 4.33333V11.6667C11 12.403 10.403 13 9.66667 13H4.33333C3.59695 13 3 12.403 3 11.6667V7Z" stroke="white" stroke-width="3" mask="url(#path-1-inside-1_82_23902)"/>
<mask id="path-2-inside-2_82_23902" fill="white">
<path d="M3 17C3 19.2091 4.79086 21 7 21H9.66667C10.403 21 11 20.403 11 19.6667V16.3333C11 15.597 10.403 15 9.66667 15H4.33333C3.59695 15 3 15.597 3 16.3333V17Z"/>
</mask>
<path d="M3 17C3 19.2091 4.79086 21 7 21H9.66667C10.403 21 11 20.403 11 19.6667V16.3333C11 15.597 10.403 15 9.66667 15H4.33333C3.59695 15 3 15.597 3 16.3333V17Z" stroke="white" stroke-width="3" mask="url(#path-2-inside-2_82_23902)"/>
<mask id="path-3-inside-3_82_23902" fill="white">
<path d="M21 7C21 4.79086 19.2091 3 17 3H14.3333C13.597 3 13 3.59695 13 4.33333V7.66667C13 8.40305 13.597 9 14.3333 9H19.6667C20.403 9 21 8.40305 21 7.66667V7Z"/>
</mask>
<path d="M21 7C21 4.79086 19.2091 3 17 3H14.3333C13.597 3 13 3.59695 13 4.33333V7.66667C13 8.40305 13.597 9 14.3333 9H19.6667C20.403 9 21 8.40305 21 7.66667V7Z" stroke="white" stroke-width="3" mask="url(#path-3-inside-3_82_23902)"/>
<mask id="path-4-inside-4_82_23902" fill="white">
<path d="M21 17C21 19.2091 19.2091 21 17 21H14.3333C13.597 21 13 20.403 13 19.6667V12.3333C13 11.597 13.597 11 14.3333 11H19.6667C20.403 11 21 11.597 21 12.3333V17Z"/>
</mask>
<path d="M21 17C21 19.2091 19.2091 21 17 21H14.3333C13.597 21 13 20.403 13 19.6667V12.3333C13 11.597 13.597 11 14.3333 11H19.6667C20.403 11 21 11.597 21 12.3333V17Z" stroke="white" stroke-width="3" mask="url(#path-4-inside-4_82_23902)"/>
</svg>
