<svg width="20" height="20" viewBox="0 0 20 20" fill="none" xmlns="http://www.w3.org/2000/svg">
<path d="M14.6624 9.10983C15.9976 9.10983 17.0808 8.0274 17.0808 6.69212C17.0808 5.35684 15.9976 4.27441 14.6624 4.27441" stroke="white" stroke-width="1.5" stroke-linecap="round" stroke-linejoin="round"/>
<path d="M15.7739 11.7373C16.1727 11.7648 16.5691 11.8213 16.9595 11.9092C17.5018 12.0154 18.1542 12.2377 18.3864 12.7242C18.5346 13.0359 18.5346 13.3988 18.3864 13.7112C18.155 14.1978 17.5018 14.4193 16.9595 14.5308" stroke="white" stroke-width="1.5" stroke-linecap="round" stroke-linejoin="round"/>
<path d="M5.24147 9.10983C3.90619 9.10983 2.823 8.0274 2.823 6.69212C2.823 5.35684 3.90619 4.27441 5.24147 4.27441" stroke="white" stroke-width="1.5" stroke-linecap="round" stroke-linejoin="round"/>
<path d="M4.1297 11.7373C3.73095 11.7648 3.3345 11.8213 2.94415 11.9092C2.40179 12.0154 1.74943 12.2377 1.51797 12.7242C1.36901 13.0359 1.36901 13.3988 1.51797 13.7112C1.74866 14.1978 2.40179 14.4193 2.94415 14.5308" stroke="white" stroke-width="1.5" stroke-linecap="round" stroke-linejoin="round"/>
<path fill-rule="evenodd" clip-rule="evenodd" d="M9.94813 12.2578C12.6538 12.2578 14.9654 12.6673 14.9654 14.3058C14.9654 15.9436 12.6691 16.3683 9.94813 16.3683C7.24167 16.3683 4.93091 15.9589 4.93091 14.3203C4.93091 12.6818 7.22716 12.2578 9.94813 12.2578Z" stroke="white" stroke-width="1.5" stroke-linecap="round" stroke-linejoin="round"/>
<path fill-rule="evenodd" clip-rule="evenodd" d="M9.94812 9.92068C8.16367 9.92068 6.73291 8.48992 6.73291 6.70471C6.73291 4.92027 8.16367 3.4895 9.94812 3.4895C11.7326 3.4895 13.1633 4.92027 13.1633 6.70471C13.1633 8.48992 11.7326 9.92068 9.94812 9.92068Z" stroke="white" stroke-width="1.5" stroke-linecap="round" stroke-linejoin="round"/>
</svg>
